<?xml version="1.0" encoding="UTF-8"?>
<svg id="Capa_1" xmlns="http://www.w3.org/2000/svg" version="1.1" viewBox="0 0 102.4 95.4">
  <!-- Generator: Adobe Illustrator 29.8.2, SVG Export Plug-In . SVG Version: 2.1.1 Build 3)  -->
  <path d="M94.7,47.7c0,24-19.5,43.5-43.6,43.5S7.6,71.7,7.6,47.7,27.1,4.1,51.2,4.1s43.6,19.5,43.6,43.5h0Z" fill="#fff"/>
  <g>
    <path d="M73.1,56.6c-1-4.6-5-8.1-9.9-8.4h-10.6l7.4,7.4c3.7,3.2,9,3.6,13,1h0Z" fill="#00cea7"/>
    <path d="M63,35.8c3.1-1.6,6.8-2,10.2-.9-.7-4.7-4.5-8.5-9.2-9.2,1,3.4.7,7-1,10.1Z" fill="#00cea7"/>
    <path d="M73.1,38.6c-4-2.6-9.3-2.3-13,.9h0l-7.6,7.5h10.7c4.9-.3,8.9-3.8,9.9-8.5h0Z" fill="#00cea7"/>
    <path d="M29.3,38.5c1,4.7,5,8.3,9.9,8.5h10.6l-7.6-7.5c-3.7-3.2-8.9-3.6-13-1h.1Z" fill="#00cea7"/>
    <path d="M29.3,56.7c4,2.6,9.2,2.2,12.9-.9h0l7.4-7.4h-10.5c-4.9.3-8.9,3.8-9.9,8.4h.1Z" fill="#00cea7"/>
    <path d="M59.2,56.5l-7.5-7.4v10.7c.3,4.8,3.8,8.8,8.4,9.8,2.6-4,2.3-9.4-.9-13h0Z" fill="#00cea7"/>
    <path d="M50.6,59.7v-10.8l-7.5,7.5h0c-3.2,3.7-3.5,9-.9,13,4.6-1,8.2-5,8.5-9.8h0Z" fill="#00cea7"/>
    <path d="M51.8,35.6v10.6l7.4-7.4h0c3.2-3.7,3.5-8.9,1-12.9-4.7,1-8.2,5-8.5,9.8h0Z" fill="#00cea7"/>
    <path d="M43.1,38.8l7.5,7.5v-10.7c-.3-4.9-3.9-8.8-8.5-9.8-2.6,4-2.2,9.3,1,13Z" fill="#00cea7"/>
    <path d="M39.3,35.8c-1.6-3.1-2-6.8-1-10.1-4.7.7-8.5,4.4-9.2,9.1,3.4-1,7-.7,10.1.9h.1Z" fill="#00cea7"/>
    <path d="M68,47.7c3.4,1.1,6.2,3.4,7.8,6.5,2.9-3.8,2.9-9.1,0-13-1.6,3.1-4.5,5.4-7.9,6.5h0Z" fill="#00cea7"/>
    <path d="M51.2,30.9c1.1-3.4,3.4-6.2,6.5-7.8-3.8-3-9.2-3-13.1,0,3.1,1.6,5.5,4.5,6.6,7.8Z" fill="#00cea7"/>
    <path d="M51.2,7.1C28.8,7.1,10.6,25.2,10.6,47.6s18.2,40.5,40.6,40.5,40.6-18.1,40.6-40.5S73.6,7.1,51.2,7.1ZM78.8,57.1c-.5.5-1,.9-1.5,1.3,0,.7,0,1.4,0,2.1,0,7.4-6,13.4-13.4,13.4s-1.4,0-2.1,0c-.4.5-.8,1-1.3,1.5-5.2,5.2-13.7,5.2-18.9,0-5.2-5.2-.9-.9-1.3-1.5-.7,0-1.4,0-2,0-7.4,0-13.4-6-13.4-13.4s0-1.4.1-2c-.5-.4-1.1-.8-1.6-1.4-5.2-5.2-5.2-13.7,0-18.9.5-.5,1-.9,1.6-1.4,0-.6-.1-1.3-.1-1.9,0-7.4,6-13.4,13.4-13.4s1.3,0,1.9.1c.4-.5.8-1.1,1.4-1.6,5.2-5.2,13.7-5.2,18.9,0,.5.5.9,1,1.4,1.6.7-.1,1.3-.1,2-.1,7.4,0,13.4,6,13.4,13.4s0,1.4,0,2c.5.4,1,.8,1.5,1.3,5.3,5.3,5.3,13.7,0,18.9h0Z" fill="#00cea7"/>
    <path d="M63,59.5c1.7,3.2,2,6.9.9,10.2,4.8-.6,8.7-4.5,9.3-9.3-3.4,1-7.1.7-10.2-.9Z" fill="#00cea7"/>
    <path d="M34.4,47.7c-3.4-1.1-6.2-3.4-7.9-6.6-2.9,3.8-2.9,9.2,0,13.1,1.6-3.1,4.5-5.4,7.8-6.5h0Z" fill="#00cea7"/>
    <path d="M39.3,59.5c-3.1,1.6-6.8,2-10.1.9.6,4.8,4.4,8.6,9.2,9.2-1.1-3.3-.8-7,.9-10.2h0Z" fill="#00cea7"/>
    <path d="M51.2,64.4c-1.1,3.4-3.4,6.2-6.5,7.8,3.8,2.8,9.1,2.8,12.9,0-3-1.6-5.4-4.4-6.4-7.8h0Z" fill="#00cea7"/>
  </g>
</svg>