<?xml version="1.0" encoding="UTF-8"?>
<svg id="Capa_2" xmlns="http://www.w3.org/2000/svg" version="1.1" viewBox="0 0 300 100.9">
  <!-- Generator: Adobe Illustrator 29.8.2, SVG Export Plug-In . SVG Version: 2.1.1 Build 3)  -->
  <g id="Capa_3">
    <g>
      <g>
        <path d="M124.2,35.9l-5.2,15.3h-1.7l-4.5-13.1-4.5,13.1h-1.7l-5.2-15.3h1.7l4.4,13.2,4.6-13.2h1.5l4.5,13.3,4.5-13.3h1.6Z" fill="#fff"/>
        <path d="M138.1,49.9v1.4h-10.9v-15.3h10.5v1.4h-8.9v5.4h8v1.4h-8v5.7h9.2Z" fill="#fff"/>
        <path d="M154.7,47.2c0,2.6-1.9,4.1-5.8,4.1h-7.1v-15.3h6.6c3.4,0,5.4,1.5,5.4,3.9s-.9,2.9-2.3,3.5c2,.4,3.1,1.7,3.1,3.8h0ZM143.5,37.3v5.5h4.9c2.4,0,3.9-.9,3.9-2.8s-1.4-2.8-3.9-2.8h-4.9ZM153.1,47c0-2-1.5-2.9-4.2-2.9h-5.4v5.8h5.4c2.7,0,4.2-.9,4.2-2.9Z" fill="#fff"/>
        <path d="M168.9,51.3l-3.5-4.9c-.4,0-.8,0-1.2,0h-4.1v4.9h-1.6v-15.3h5.8c3.9,0,6.3,2,6.3,5.3s-1.3,4.1-3.5,4.8l3.8,5.3h-1.8ZM168.8,41.2c0-2.4-1.6-3.9-4.7-3.9h-4.1v7.7h4.1c3.1,0,4.7-1.4,4.7-3.8Z" fill="#fff"/>
        <path d="M185.1,49.9v1.4h-10.9v-15.3h10.5v1.4h-8.9v5.4h8v1.4h-8v5.7h9.2Z" fill="#fff"/>
        <path d="M187.5,49.4l.6-1.2c1.1,1.1,3.1,1.9,5.1,1.9,2.9,0,4.1-1.2,4.1-2.7,0-4.2-9.5-1.6-9.5-7.3s1.8-4.2,5.7-4.2,3.5.5,4.7,1.4l-.5,1.3c-1.3-.8-2.8-1.3-4.2-1.3-2.8,0-4.1,1.2-4.1,2.8,0,4.2,9.5,1.7,9.5,7.3s-1.8,4.2-5.7,4.2-4.6-.8-5.7-2h0Z" fill="#fff"/>
        <path d="M206.8,49.8l1.2-2.7c1.3.9,3.2,1.6,5.1,1.6s3-.7,3-1.6c0-2.9-8.9-.9-8.9-6.6s2.1-4.8,6.5-4.8,3.9.5,5.3,1.4l-1.1,2.7c-1.4-.8-2.9-1.2-4.3-1.2-2.1,0-2.9.8-2.9,1.8,0,2.8,8.9.9,8.9,6.5s-2.1,4.7-6.5,4.7-4.9-.7-6.2-1.8h0Z" fill="#fff"/>
        <path d="M224.9,38.8h-4.9v-2.9h13.4v2.9h-4.9v12.4h-3.5v-12.4h0Z" fill="#fff"/>
        <path d="M234.9,44.5v-8.6h3.5v8.5c0,2.9,1.3,4.1,3.4,4.1s3.4-1.2,3.4-4.1v-8.5h3.5v8.6c0,4.5-2.6,7-6.9,7s-6.9-2.5-6.9-7h0Z" fill="#fff"/>
        <path d="M252.3,35.9h7c5,0,8.5,3,8.5,7.7s-3.4,7.7-8.5,7.7h-7v-15.3ZM259.1,48.3c3,0,5-1.8,5-4.7s-2-4.7-5-4.7h-3.2v9.5h3.2Z" fill="#fff"/>
        <path d="M270.4,35.9h3.5v15.3h-3.5v-15.3Z" fill="#fff"/>
        <path d="M276.7,43.6c0-4.6,3.5-7.9,8.4-7.9s8.4,3.4,8.4,7.9-3.6,7.9-8.4,7.9-8.4-3.4-8.4-7.9ZM289.9,43.6c0-2.9-2.1-4.9-4.8-4.9s-4.8,2-4.8,4.9,2.1,4.9,4.8,4.9,4.8-2,4.8-4.9Z" fill="#fff"/>
      </g>
      <g>
        <path d="M93.6,50.5c0,24-19.5,43.5-43.6,43.5S6.5,74.5,6.5,50.5,26,6.9,50.1,6.9s43.6,19.5,43.6,43.5Z" fill="#fff"/>
        <g>
          <path d="M72,59.4c-1-4.6-5-8.1-9.9-8.4h-10.6l7.4,7.4c3.7,3.2,9,3.6,13,1h0Z" fill="#00cea7"/>
          <path d="M61.9,38.6c3.1-1.6,6.8-2,10.2-.9-.7-4.7-4.5-8.5-9.2-9.2,1,3.4.7,7-1,10.1Z" fill="#00cea7"/>
          <path d="M72,41.4c-4-2.6-9.3-2.3-13,.9,0,0,0,0,0,0l-7.6,7.5h10.7c4.9-.3,8.9-3.8,9.9-8.5Z" fill="#00cea7"/>
          <path d="M28.2,41.3c1,4.7,5,8.3,9.9,8.5h10.6l-7.6-7.5c-3.7-3.2-8.9-3.6-13-1Z" fill="#00cea7"/>
          <path d="M28.2,59.5c4,2.6,9.2,2.2,12.9-.9,0,0,0,0,0,0l7.4-7.4h-10.5c-4.9.3-8.9,3.8-9.9,8.4Z" fill="#00cea7"/>
          <path d="M58.1,59.3l-7.5-7.4v10.7c.3,4.8,3.8,8.8,8.4,9.8,2.6-4,2.3-9.4-.9-13h0Z" fill="#00cea7"/>
          <path d="M49.5,62.5v-10.8l-7.5,7.5s0,0,0,0c-3.2,3.7-3.5,9-.9,13,4.6-1,8.2-5,8.5-9.8h0Z" fill="#00cea7"/>
          <path d="M50.7,38.4v10.6l7.4-7.4s0,0,0,0c3.2-3.7,3.5-8.9,1-12.9-4.7,1-8.2,5-8.5,9.8h0Z" fill="#00cea7"/>
          <path d="M42,41.6l7.5,7.5v-10.7c-.3-4.9-3.9-8.8-8.5-9.8-2.6,4-2.2,9.3,1,13Z" fill="#00cea7"/>
          <path d="M38.2,38.6c-1.6-3.1-2-6.8-1-10.1-4.7.7-8.5,4.4-9.2,9.1,3.4-1,7-.7,10.1.9Z" fill="#00cea7"/>
          <path d="M66.9,50.5c3.4,1.1,6.2,3.4,7.8,6.5,2.9-3.8,2.9-9.1,0-13-1.6,3.1-4.5,5.4-7.9,6.5Z" fill="#00cea7"/>
          <path d="M50.1,33.7c1.1-3.4,3.4-6.2,6.5-7.8-3.8-3-9.2-3-13.1,0,3.1,1.6,5.5,4.5,6.6,7.8Z" fill="#00cea7"/>
          <path d="M50.1,9.9c-22.4,0-40.6,18.1-40.6,40.5s18.2,40.5,40.6,40.5,40.6-18.1,40.6-40.5S72.5,9.9,50.1,9.9ZM77.7,59.9c-.5.5-1,.9-1.5,1.3.1.7.1,1.4.1,2.1,0,7.4-6,13.4-13.4,13.4s-1.4,0-2.1-.1c-.4.5-.8,1-1.3,1.5-5.2,5.2-13.7,5.2-18.9,0-5.2-5.2-.9-.9-1.3-1.5-.7.1-1.4.1-2,.1-7.4,0-13.4-6-13.4-13.4s0-1.4.1-2c-.5-.4-1.1-.8-1.6-1.4-5.2-5.2-5.2-13.7,0-18.9.5-.5,1-.9,1.6-1.4,0-.6-.1-1.3-.1-1.9,0-7.4,6-13.4,13.4-13.4s1.3,0,1.9.1c.4-.5.8-1.1,1.4-1.6,5.2-5.2,13.7-5.2,18.9,0,.5.5.9,1,1.4,1.6.7-.1,1.3-.1,2-.1,7.4,0,13.4,6,13.4,13.4s0,1.4-.1,2c.5.4,1,.8,1.5,1.3,5.3,5.3,5.3,13.7,0,18.9h0Z" fill="#00cea7"/>
          <path d="M61.9,62.3c1.7,3.2,2,6.9.9,10.2,4.8-.6,8.7-4.5,9.3-9.3-3.4,1-7.1.7-10.2-.9Z" fill="#00cea7"/>
          <path d="M33.3,50.5c-3.4-1.1-6.2-3.4-7.9-6.6-2.9,3.8-2.9,9.2,0,13.1,1.6-3.1,4.5-5.4,7.8-6.5h0Z" fill="#00cea7"/>
          <path d="M38.2,62.3c-3.1,1.6-6.8,2-10.1.9.6,4.8,4.4,8.6,9.2,9.2-1.1-3.3-.8-7,.9-10.2h0Z" fill="#00cea7"/>
          <path d="M50.1,67.2c-1.1,3.4-3.4,6.2-6.5,7.8,3.8,2.8,9.1,2.8,12.9,0-3-1.6-5.4-4.4-6.4-7.8h0Z" fill="#00cea7"/>
        </g>
      </g>
    </g>
  </g>
  <g>
    <path d="M104.6,64.4c-1.3,0-2.1-.7-2.2-1.7h.7c0,.5.4,1.2,1.5,1.2s1.4-.5,1.4-1.2c0-1.9-3.5-.7-3.5-3.1s.8-1.7,2-1.7,1.9.7,2.1,1.6h-.7c0-.4-.5-1-1.4-1-.7,0-1.4.4-1.4,1.1,0,1.8,3.5.7,3.5,3.1s-.7,1.7-2.1,1.7Z" fill="#fdfdfb"/>
    <path d="M111.6,62.8h-2.9l-.6,1.5h-.7l2.3-6.3h.7l2.3,6.3h-.7l-.6-1.5ZM110.2,58.9l-1.3,3.5h2.5l-1.3-3.5Z" fill="#fdfdfb"/>
    <path d="M117.6,62.8h-2.9l-.6,1.5h-.7l2.3-6.3h.7l2.3,6.3h-.7l-.6-1.5ZM116.1,58.9l-1.3,3.5h2.5l-1.3-3.5Z" fill="#fdfdfb"/>
    <path d="M121.8,64.4c-1.3,0-2.1-.7-2.2-1.7h.7c0,.5.4,1.2,1.5,1.2s1.4-.5,1.4-1.2c0-1.9-3.5-.7-3.5-3.1s.8-1.7,2-1.7,1.9.7,2.1,1.6h-.7c0-.4-.5-1-1.4-1-.7,0-1.4.4-1.4,1.1,0,1.8,3.5.7,3.5,3.1s-.7,1.7-2.1,1.7Z" fill="#fdfdfb"/>
    <path d="M132.9,61.2c0,2-1.3,3.2-3.4,3.2h-1.9v-6.4h1.9c2.1,0,3.4,1.2,3.4,3.2ZM129.5,63.8c1.8,0,2.7-1,2.7-2.7s-.9-2.7-2.7-2.7h-1.3v5.3h1.3Z" fill="#fdfdfb"/>
    <path d="M137.4,58.5h-2.7v2.4h2.4v.5h-2.4v2.4h2.7v.5h-3.3v-6.4h3.3v.5Z" fill="#fdfdfb"/>
    <path d="M143,58h.7l-2.4,6.4h-.7l-2.4-6.4h.7l2.1,5.7,2.1-5.7Z" fill="#fdfdfb"/>
    <path d="M148,58.5h-2.7v2.4h2.4v.5h-2.4v2.4h2.7v.5h-3.3v-6.4h3.3v.5Z" fill="#fdfdfb"/>
    <path d="M149.9,58v5.9h2.3v.5h-2.9v-6.4h.6Z" fill="#fdfdfb"/>
    <path d="M156,64.4c-1.8,0-3.2-1.3-3.2-3.3s1.4-3.3,3.2-3.3,3.2,1.4,3.2,3.3-1.4,3.3-3.2,3.3ZM156,63.9c1.4,0,2.5-1,2.5-2.7s-1.1-2.7-2.5-2.7-2.5,1-2.5,2.7,1.1,2.7,2.5,2.7Z" fill="#fdfdfb"/>
    <path d="M162.3,61.6h-1.3v2.7h-.6v-6.4h1.9c1.5,0,2.2.8,2.2,1.8s-.7,1.8-2.2,1.8ZM162.3,61.1c1.1,0,1.5-.5,1.5-1.3s-.4-1.3-1.5-1.3h-1.3v2.6h1.3Z" fill="#fdfdfb"/>
    <path d="M165.5,58.1h.7l2.4,5.5,2.4-5.5h.7v6.3h-.6v-5l-2.2,5h-.5l-2.2-5v5h-.6v-6.3Z" fill="#fdfdfb"/>
    <path d="M176.5,58.5h-2.7v2.4h2.4v.5h-2.4v2.4h2.7v.5h-3.3v-6.4h3.3v.5Z" fill="#fdfdfb"/>
    <path d="M182.6,58v6.4h-.6l-3.5-5.4v5.4h-.6v-6.4h.6l3.5,5.4v-5.4h.6Z" fill="#fdfdfb"/>
    <path d="M183.6,58h4.2v.5h-1.8v5.9h-.6v-5.9h-1.8v-.5Z" fill="#fdfdfb"/>
    <path d="M194.3,59.3c0-.6-.4-.9-.9-.9s-.9.3-.9.8.2.7.7,1.2l2.1,2.1c.1-.2.2-.3.3-.5l.6-1h.7l-.7,1.2c-.2.3-.3.5-.5.8l1.3,1.3h-.8l-.9-.9c-.6.7-1.3,1-2.2,1-1.3,0-2.2-.8-2.2-1.9s.5-1.6,1.5-2c-.4-.5-.6-.9-.6-1.3,0-.8.6-1.4,1.6-1.4s1.6.6,1.5,1.4h-.6ZM194.9,63l-2-2.1c-.9.3-1.3.8-1.3,1.5s.6,1.4,1.5,1.4,1.3-.3,1.8-.9Z" fill="#fdfdfb"/>
    <path d="M204.1,62.8h-2.9l-.6,1.5h-.7l2.3-6.3h.7l2.3,6.3h-.7l-.6-1.5ZM202.7,58.9l-1.3,3.5h2.5l-1.3-3.5Z" fill="#fdfdfb"/>
    <path d="M206.3,58h.6v4c0,1.3.7,1.9,1.7,1.9s1.7-.5,1.7-1.9v-4h.6v4c0,1.7-1,2.4-2.3,2.4s-2.3-.7-2.3-2.4v-4Z" fill="#fdfdfb"/>
    <path d="M212,58h4.2v.5h-1.8v5.9h-.6v-5.9h-1.8v-.5Z" fill="#fdfdfb"/>
    <path d="M220,64.4c-1.8,0-3.2-1.3-3.2-3.3s1.4-3.3,3.2-3.3,3.2,1.4,3.2,3.3-1.4,3.3-3.2,3.3ZM220,63.9c1.4,0,2.5-1,2.5-2.7s-1.1-2.7-2.5-2.7-2.5,1-2.5,2.7,1.1,2.7,2.5,2.7Z" fill="#fdfdfb"/>
    <path d="M224.4,58.1h.7l2.4,5.5,2.4-5.5h.7v6.3h-.6v-5l-2.2,5h-.5l-2.2-5v5h-.6v-6.3Z" fill="#fdfdfb"/>
    <path d="M235.8,62.8h-2.9l-.6,1.5h-.7l2.3-6.3h.7l2.3,6.3h-.7l-.6-1.5ZM234.3,58.9l-1.3,3.5h2.5l-1.3-3.5Z" fill="#fdfdfb"/>
    <path d="M237.6,58h4.2v.5h-1.8v5.9h-.6v-5.9h-1.8v-.5Z" fill="#fdfdfb"/>
    <path d="M242.8,58h.6v6.4h-.6v-6.4Z" fill="#fdfdfb"/>
    <path d="M247.8,64.4c-1.8,0-3.2-1.3-3.2-3.3s1.4-3.3,3.2-3.3,3.2,1.4,3.2,3.3-1.4,3.3-3.2,3.3ZM247.8,63.9c1.4,0,2.5-1,2.5-2.7s-1.1-2.7-2.5-2.7-2.5,1-2.5,2.7,1.1,2.7,2.5,2.7Z" fill="#fdfdfb"/>
    <path d="M256.9,58v6.4h-.6l-3.5-5.4v5.4h-.6v-6.4h.6l3.5,5.4v-5.4h.6Z" fill="#fdfdfb"/>
  </g>
</svg>